<?xml version="1.0" ?><!DOCTYPE svg  PUBLIC '-//W3C//DTD SVG 1.0//EN'  'http://www.w3.org/TR/2001/REC-SVG-20010904/DTD/svg10.dtd'><svg enable-background="new 0 0 100 100" height="100px" id="Layer_1" version="1.0" viewBox="0 0 100 100" width="100px" xml:space="preserve" xmlns="http://www.w3.org/2000/svg" xmlns:xlink="http://www.w3.org/1999/xlink"><path d="  M75,10H25c-8.249,0-15,6.75-15,15v49.999C10,83.251,16.751,90,25,90h50c8.249,0,15-6.749,15-15.001V25C90,16.75,83.249,10,75,10z   M50,73.748c-13.113,0-23.75-10.634-23.75-23.747c0-13.118,10.637-23.75,23.75-23.75c13.114,0,23.748,10.632,23.748,23.75  C73.748,63.114,63.114,73.748,50,73.748z M75,30.002c-2.761,0-5-2.239-5-5.001c0-2.761,2.239-5,5-5c2.762,0,5.001,2.239,5.001,5  C80.001,27.763,77.762,30.002,75,30.002z" fill="none" stroke="#000000" stroke-linecap="round" stroke-linejoin="round" stroke-miterlimit="10" stroke-width="2"/><path d="  M63.749,50.001c0,7.59-6.157,13.751-13.749,13.751c-7.593,0-13.75-6.161-13.75-13.751c0-7.596,6.158-13.752,13.75-13.752  C57.592,36.249,63.749,42.405,63.749,50.001z" fill="none" stroke="#000000" stroke-linecap="round" stroke-linejoin="round" stroke-miterlimit="10" stroke-width="2"/></svg>